<svg xmlns="http://www.w3.org/2000/svg" viewBox="0 0 671.86 88.39"><defs><style>.cls-1{fill:#ffc712;}.cls-2{fill:#e87b24;}</style></defs><title>ribbon</title><g id="Layer_2" data-name="Layer 2"><g id="Layer_1-2" data-name="Layer 1"><rect class="cls-1" x="50.78" y="66.67" width="570.27" height="21.72"/><rect class="cls-1" width="671.86" height="88.39"/><path class="cls-2" d="M181,22.52q5.3,4.44,5.3,13.1,0,8.19-5.34,12.51t-15.48,4.33h-9.67V69.54H139.87V18.07h25.57Q175.66,18.07,181,22.52ZM168.49,39.83a5.2,5.2,0,0,0,1.79-4.37,5.21,5.21,0,0,0-1.79-4.37q-1.8-1.4-5.61-1.4h-7.1V41.23h7.1Q166.69,41.23,168.49,39.83Z"/><path class="cls-2" d="M218.7,51.68h-6.47V69.54H196.63V18.07H223q9.82,0,15,4.29t5.15,12.55q0,11.23-9.59,15l12.55,19.57H228.68Zm-6.47-10.84h7.72q3.9,0,5.54-1.29a5.08,5.08,0,0,0,1.64-4.25A5.14,5.14,0,0,0,225.45,31q-1.68-1.33-5.5-1.33h-7.72Z"/><path class="cls-2" d="M296.67,57.61V69.54H254.18V18.07h41.48V30H270.08v8.34h20.43V49.42H270.08v8.19Z"/><path class="cls-2" d="M369.34,69.54h-14V49l.31-16.61h-.16L344.16,69.54H331.37L320.22,32.34H320L320.3,49V69.54h-14V18.07h22.46l6.94,24.41,2.57,10.21h.16L341,42.48l6.94-24.41h21.44Z"/><path class="cls-2" d="M397.8,69.54H381.89V18.07H397.8Z"/><path class="cls-2" d="M457.37,47.94q0,22.38-24,22.38t-24-22.38V18.07H425.4V48.8q0,9.36,8,9.36t8-9.36V18.07h16Z"/><path class="cls-2" d="M532,69.54H518V49l.31-16.61h-.16L506.8,69.54H494L482.87,32.34h-.23L482.94,49V69.54h-14V18.07h22.46l6.94,24.41,2.57,10.21H501l2.57-10.21,6.94-24.41H532Z"/></g></g></svg>